<svg width="1924" height="1084" viewBox="0 0 1924 1084" fill="none" xmlns="http://www.w3.org/2000/svg">
    <path d="M2 2L176.545 182" stroke="#000" stroke-opacity="0.20" stroke-width="2" stroke-linecap="square" />
    <path d="M351.091 2L176.545 182" stroke="#000" stroke-opacity="0.20" stroke-width="2" stroke-linecap="square" />
    <path d="M525.636 2L351.091 182" stroke="#000" stroke-opacity="0.20" stroke-width="2" stroke-linecap="square" />
    <path d="M525.636 2L700.182 182" stroke="#000" stroke-opacity="0.20" stroke-width="2" stroke-linecap="square" />
    <path d="M874.727 2L700.182 182" stroke="#000" stroke-opacity="0.20" stroke-width="2" stroke-linecap="square" />
    <path d="M874.727 2L1049.27 182" stroke="#000" stroke-opacity="0.20" stroke-width="2" stroke-linecap="square" />
    <path d="M1223.82 2L1049.27 182" stroke="#000" stroke-opacity="0.20" stroke-width="2" stroke-linecap="square" />
    <path d="M1223.82 2L1398.36 182" stroke="#000" stroke-opacity="0.20" stroke-width="2" stroke-linecap="square" />
    <path d="M1572.91 2L1398.36 182" stroke="#000" stroke-opacity="0.20" stroke-width="2" stroke-linecap="square" />
    <path d="M1747.45 2L1572.91 182" stroke="#000" stroke-opacity="0.20" stroke-width="2" stroke-linecap="square" />
    <path d="M1747.45 2L1922 182" stroke="#000" stroke-opacity="0.20" stroke-width="2" stroke-linecap="square" />
    <path opacity="0.83" d="M2 182L176.545 362" stroke="#000" stroke-opacity="0.20" stroke-width="2" stroke-linecap="square" />
    <path opacity="0.83" d="M351.091 182L176.545 362" stroke="#000" stroke-opacity="0.20" stroke-width="2" stroke-linecap="square" />
    <path opacity="0.83" d="M525.636 182L351.091 362" stroke="#000" stroke-opacity="0.20" stroke-width="2" stroke-linecap="square" />
    <path opacity="0.83" d="M700.182 182L525.636 362" stroke="#000" stroke-opacity="0.20" stroke-width="2" stroke-linecap="square" />
    <path opacity="0.83" d="M700.182 182L874.727 362" stroke="#000" stroke-opacity="0.20" stroke-width="2" stroke-linecap="square" />
    <path opacity="0.83" d="M1049.27 182L874.727 362" stroke="#000" stroke-opacity="0.20" stroke-width="2" stroke-linecap="square" />
    <path opacity="0.83" d="M1049.27 182L1223.82 362" stroke="#000" stroke-opacity="0.20" stroke-width="2" stroke-linecap="square" />
    <path opacity="0.83" d="M1398.36 182L1223.82 362" stroke="#000" stroke-opacity="0.20" stroke-width="2" stroke-linecap="square" />
    <path opacity="0.83" d="M1572.91 182L1398.36 362" stroke="#000" stroke-opacity="0.20" stroke-width="2" stroke-linecap="square" />
    <path opacity="0.83" d="M1572.91 182L1747.45 362" stroke="#000" stroke-opacity="0.20" stroke-width="2" stroke-linecap="square" />
    <path opacity="0.83" d="M1922 182L1747.45 362" stroke="#000" stroke-opacity="0.20" stroke-width="2" stroke-linecap="square" />
    <path opacity="0.67" d="M2 362L176.545 542" stroke="#000" stroke-opacity="0.20" stroke-width="2" stroke-linecap="square" />
    <path opacity="0.67" d="M351.091 362L176.545 542" stroke="#000" stroke-opacity="0.20" stroke-width="2" stroke-linecap="square" />
    <path opacity="0.67" d="M525.636 362L351.091 542" stroke="#000" stroke-opacity="0.20" stroke-width="2" stroke-linecap="square" />
    <path opacity="0.67" d="M525.636 362L700.182 542" stroke="#000" stroke-opacity="0.20" stroke-width="2" stroke-linecap="square" />
    <path opacity="0.67" d="M700.182 362L874.727 542" stroke="#000" stroke-opacity="0.20" stroke-width="2" stroke-linecap="square" />
    <path opacity="0.67" d="M1049.27 362L874.727 542" stroke="#000" stroke-opacity="0.20" stroke-width="2" stroke-linecap="square" />
    <path opacity="0.67" d="M1223.82 362L1049.27 542" stroke="#000" stroke-opacity="0.20" stroke-width="2" stroke-linecap="square" />
    <path opacity="0.67" d="M1223.82 362L1398.36 542" stroke="#000" stroke-opacity="0.20" stroke-width="2" stroke-linecap="square" />
    <path opacity="0.67" d="M1572.91 362L1398.36 542" stroke="#000" stroke-opacity="0.20" stroke-width="2" stroke-linecap="square" />
    <path opacity="0.67" d="M1747.45 362L1572.91 542" stroke="#000" stroke-opacity="0.20" stroke-width="2" stroke-linecap="square" />
    <path opacity="0.67" d="M1922 362L1747.45 542" stroke="#000" stroke-opacity="0.20" stroke-width="2" stroke-linecap="square" />
    <path opacity="0.5" d="M176.545 542L2 722" stroke="#000" stroke-opacity="0.20" stroke-width="2" stroke-linecap="square" />
    <path opacity="0.5" d="M176.545 542L351.091 722" stroke="#000" stroke-opacity="0.20" stroke-width="2" stroke-linecap="square" />
    <path opacity="0.5" d="M525.636 542L351.091 722" stroke="#000" stroke-opacity="0.20" stroke-width="2" stroke-linecap="square" />
    <path opacity="0.5" d="M700.182 542L525.636 722" stroke="#000" stroke-opacity="0.20" stroke-width="2" stroke-linecap="square" />
    <path opacity="0.5" d="M874.727 542L700.182 722" stroke="#000" stroke-opacity="0.20" stroke-width="2" stroke-linecap="square" />
    <path opacity="0.5" d="M1049.27 542L874.727 722" stroke="#000" stroke-opacity="0.20" stroke-width="2" stroke-linecap="square" />
    <path opacity="0.5" d="M1223.82 542L1049.27 722" stroke="#000" stroke-opacity="0.20" stroke-width="2" stroke-linecap="square" />
    <path opacity="0.5" d="M1223.82 542L1398.36 722" stroke="#000" stroke-opacity="0.20" stroke-width="2" stroke-linecap="square" />
    <path opacity="0.5" d="M1572.91 542L1398.36 722" stroke="#000" stroke-opacity="0.20" stroke-width="2" stroke-linecap="square" />
    <path opacity="0.5" d="M1747.45 542L1572.91 722" stroke="#000" stroke-opacity="0.20" stroke-width="2" stroke-linecap="square" />
    <path opacity="0.5" d="M1747.45 542L1922 722" stroke="#000" stroke-opacity="0.20" stroke-width="2" stroke-linecap="square" />
    <path opacity="0.34" d="M176.545 722L2 902" stroke="#000" stroke-opacity="0.20" stroke-width="2" stroke-linecap="square" />
    <path opacity="0.34" d="M176.545 722L351.091 902" stroke="#000" stroke-opacity="0.20" stroke-width="2" stroke-linecap="square" />
    <path opacity="0.34" d="M525.636 722L351.091 902" stroke="#000" stroke-opacity="0.20" stroke-width="2" stroke-linecap="square" />
    <path opacity="0.34" d="M700.182 722L525.636 902" stroke="#000" stroke-opacity="0.20" stroke-width="2" stroke-linecap="square" />
    <path opacity="0.34" d="M874.727 722L700.182 902" stroke="#000" stroke-opacity="0.20" stroke-width="2" stroke-linecap="square" />
    <path opacity="0.34" d="M1049.27 722L874.727 902" stroke="#000" stroke-opacity="0.20" stroke-width="2" stroke-linecap="square" />
    <path opacity="0.34" d="M1049.27 722L1223.82 902" stroke="#000" stroke-opacity="0.20" stroke-width="2" stroke-linecap="square" />
    <path opacity="0.34" d="M1398.36 722L1223.82 902" stroke="#000" stroke-opacity="0.20" stroke-width="2" stroke-linecap="square" />
    <path opacity="0.34" d="M1398.36 722L1572.91 902" stroke="#000" stroke-opacity="0.20" stroke-width="2" stroke-linecap="square" />
    <path opacity="0.34" d="M1747.45 722L1572.91 902" stroke="#000" stroke-opacity="0.20" stroke-width="2" stroke-linecap="square" />
    <path opacity="0.34" d="M1922 722L1747.45 902" stroke="#000" stroke-opacity="0.20" stroke-width="2" stroke-linecap="square" />
    <path opacity="0.17" d="M176.545 902L2 1082" stroke="#000" stroke-opacity="0.20" stroke-width="2" stroke-linecap="square" />
    <path opacity="0.17" d="M351.091 902L176.545 1082" stroke="#000" stroke-opacity="0.20" stroke-width="2" stroke-linecap="square" />
    <path opacity="0.17" d="M525.636 902L351.091 1082" stroke="#000" stroke-opacity="0.20" stroke-width="2" stroke-linecap="square" />
    <path opacity="0.17" d="M700.182 902L525.636 1082" stroke="#000" stroke-opacity="0.20" stroke-width="2" stroke-linecap="square" />
    <path opacity="0.17" d="M874.727 902L700.182 1082" stroke="#000" stroke-opacity="0.20" stroke-width="2" stroke-linecap="square" />
    <path opacity="0.17" d="M1049.27 902L874.727 1082" stroke="#000" stroke-opacity="0.20" stroke-width="2" stroke-linecap="square" />
    <path opacity="0.17" d="M1223.82 902L1049.27 1082" stroke="#000" stroke-opacity="0.20" stroke-width="2" stroke-linecap="square" />
    <path opacity="0.17" d="M1398.36 902L1223.82 1082" stroke="#000" stroke-opacity="0.20" stroke-width="2" stroke-linecap="square" />
    <path opacity="0.17" d="M1398.36 902L1572.91 1082" stroke="#000" stroke-opacity="0.20" stroke-width="2" stroke-linecap="square" />
    <path opacity="0.17" d="M1747.45 902L1572.91 1082" stroke="#000" stroke-opacity="0.20" stroke-width="2" stroke-linecap="square" />
    <path opacity="0.17" d="M1747.45 902L1922 1082" stroke="#000" stroke-opacity="0.20" stroke-width="2" stroke-linecap="square" />
</svg>