<svg width="625" height="651" viewBox="0 0 625 651" fill="none" xmlns="http://www.w3.org/2000/svg">
<rect y="334.111" width="150.978" height="155" fill="white" fill-opacity="0.02"/>
<rect x="265.314" y="3" width="220.889" height="225.639" stroke="white" stroke-opacity="0.02" stroke-width="6"/>
<path d="M500.169 447.089L575.067 523.555L500.169 600.022L425.27 523.555L500.169 447.089Z" fill="white" fill-opacity="0.02"/>
<path fill-rule="evenodd" clip-rule="evenodd" d="M625 523.556L500.169 396.111L375.337 523.556L500.169 651L625 523.556ZM500.169 432.524L589.334 523.555L500.169 614.587L455.586 569.071L411.003 523.555L500.169 432.524Z" fill="white" fill-opacity="0.02"/>
<path d="M501.597 431.124L500.169 429.666L498.74 431.124L409.575 522.156L408.204 523.555L409.575 524.955L454.157 570.471L498.74 615.987L500.169 617.445L501.597 615.987L590.763 524.955L592.133 523.555L590.763 522.156L501.597 431.124ZM500.169 648.142L378.137 523.556L500.169 398.969L622.2 523.556L500.169 648.142ZM500.169 597.164L428.069 523.555L500.169 449.947L572.268 523.555L500.169 597.164Z" stroke="white" stroke-opacity="0.02" stroke-width="4"/>
</svg>
